<svg width="468" height="80" viewBox="0 0 468 80" fill="none" xmlns="http://www.w3.org/2000/svg">
<mask id="path-1-inside-1_94_5192" fill="white">
<path fill-rule="evenodd" clip-rule="evenodd" d="M29 0C22.9249 0 18 4.92487 18 11V18.2461L0 28.5263L18 37.7785V69C18 75.0751 22.9249 80 29 80H457C463.075 80 468 75.0751 468 69V11C468 4.92487 463.075 0 457 0H29Z"/>
</mask>
<path fill-rule="evenodd" clip-rule="evenodd" d="M29 0C22.9249 0 18 4.92487 18 11V18.2461L0 28.5263L18 37.7785V69C18 75.0751 22.9249 80 29 80H457C463.075 80 468 75.0751 468 69V11C468 4.92487 463.075 0 457 0H29Z" fill="white"/>
<path d="M18 18.2461L18.4959 19.1144L19 18.8265V18.2461H18ZM0 28.5263L-0.49594 27.658L-2.0974 28.5726L-0.457156 29.4157L0 28.5263ZM18 37.7785H19V37.1682L18.4572 36.8892L18 37.7785ZM19 11C19 5.47715 23.4772 1 29 1V-1C22.3726 -1 17 4.37258 17 11H19ZM19 18.2461V11H17V18.2461H19ZM17.5041 17.3777L-0.49594 27.658L0.49594 29.3947L18.4959 19.1144L17.5041 17.3777ZM-0.457156 29.4157L17.5428 38.6679L18.4572 36.8892L0.457156 27.6369L-0.457156 29.4157ZM19 69V37.7785H17V69H19ZM29 79C23.4772 79 19 74.5229 19 69H17C17 75.6274 22.3726 81 29 81V79ZM457 79H29V81H457V79ZM467 69C467 74.5229 462.523 79 457 79V81C463.627 81 469 75.6274 469 69H467ZM467 11V69H469V11H467ZM457 1C462.523 1 467 5.47715 467 11H469C469 4.37258 463.627 -1 457 -1V1ZM29 1H457V-1H29V1Z" fill="#D3D3D3" mask="url(#path-1-inside-1_94_5192)"/>
</svg>
